<svg xmlns="http://www.w3.org/2000/svg" style="display: none;">
  <symbol id="icon-lock" viewBox="0 0 24 24" fill="currentColor">
    <path d="M12 1a5 5 0 0 0-5 5v4H5a2 2 0 0 0-2 2v10a2 2 0 0 0 2 2h14a2 2 0 0 0 2-2V12a2 2 0 0 0-2-2h-2V6a5 5 0 0 0-5-5zm3 9H9V6a3 3 0 0 1 6 0v4z"/>
  </symbol>
  <symbol id="icon-zap" viewBox="0 0 24 24" fill="currentColor">
    <path d="M13 2L3 14h9l-1 8 10-12h-9l1-8z"/>
  </symbol>
  <symbol id="icon-globe" viewBox="0 0 24 24" fill="currentColor">
    <path d="M12 2C6.48 2 2 6.48 2 12s4.48 10 10 10 10-4.48 10-10S17.52 2 12 2zm-1 17.93c-3.95-.49-7-3.85-7-7.93 0-.62.08-1.21.21-1.79L9 15v1c0 1.1.9 2 2 2v1.93zm6.9-2.54c-.26-.81-1-1.39-1.9-1.39h-1v-3c0-.55-.45-1-1-1H8v-2h2c.55 0 1-.45 1-1V7h2c1.1 0 2-.9 2-2v-.41c2.93 1.19 5 4.06 5 7.41 0 2.08-.8 3.97-2.1 5.39z"/>
  </symbol>
  <symbol id="icon-shield-check" viewBox="0 0 24 24" fill="currentColor">
    <path d="M9 12l2 2 4-4m6 2a9 9 0 1 1-18 0 9 9 0 0 1 18 0z"/>
  </symbol>
  <symbol id="icon-edit" viewBox="0 0 24 24" fill="currentColor">
    <path d="M11 4H4a2 2 0 0 0-2 2v14a2 2 0 0 0 2 2h14a2 2 0 0 0 2-2v-7l-3-3zm-1 14l-4-4 1.41-1.41L10 14.17l6.59-6.59L18 9l-8 8z"/>
  </symbol>
  <symbol id="icon-browser" viewBox="0 0 24 24" fill="currentColor">
    <path d="M20 3H4a2 2 0 0 0-2 2v14a2 2 0 0 0 2 2h16a2 2 0 0 0 2-2V5a2 2 0 0 0-2-2zm0 2v3h-2V5h2zm-4 0v3h-2V5h2zm-4 0v3h-2V5h2zm-4 0v3H6V5h2zm0 14H4v-6h4v6zm6 0h-4v-6h4v6zm6 0h-4v-6h4v6zm0-8H4V5h16v9z"/>
  </symbol>
  <symbol id="icon-download" viewBox="0 0 24 24" fill="currentColor">
    <path d="M19 9h-4V3H9v6H5l7 7 7-7zM5 18v2h14v-2H5z"/>
  </symbol>
  <symbol id="icon-mobile" viewBox="0 0 24 24" fill="currentColor">
    <path d="M17 1.01L7 1c-1.1 0-2 .9-2 2v18c0 1.1.9 2 2 2h10c1.1 0 2-.9 2-2V3c0-1.1-.9-1.99-2-1.99zM17 19H7V5h10v14z"/>
  </symbol>
  <symbol id="icon-smile" viewBox="0 0 24 24" fill="currentColor">
    <path d="M12 2C6.48 2 2 6.48 2 12s4.48 10 10 10 10-4.48 10-10S17.52 2 12 2zm-2 15l-5-5 1.41-1.41L10 14.17l7.59-7.59L19 8l-9 9z"/>
  </symbol>
  <symbol id="icon-cloud-off" viewBox="0 0 24 24" fill="currentColor">
    <path d="M19.35 10.04C18.67 6.59 15.64 4 12 4 9.11 4 6.6 5.64 5.35 8.04 2.34 8.36 0 10.91 0 14c0 3.31 2.69 6 6 6h13c2.76 0 5-2.24 5-5 0-2.64-2.05-4.78-4.65-4.96zM10 17l-3.5-3.5 1.41-1.41L10 14.17l4.59-4.59L16 11l-6 6z"/>
  </symbol>
  <symbol id="icon-desktop" viewBox="0 0 24 24" fill="currentColor">
    <path d="M20 3H4c-1.1 0-2 .9-2 2v11h2c.55 0 1 .45 1 1s-.45 1-1 1H2v3h20v-3h-1c-.55 0-1-.45-1-1s.45-1 1-1h2V5c0-1.1-.9-2-2-2zm0 13H4V5h16v11z"/>
  </symbol>
  <symbol id="icon-gift" viewBox="0 0 24 24" fill="currentColor">
    <path d="M12 2l3.09 6.26L22 9.27l-5 4.87 1.18 6.88L12 17.77l-6.18 3.25L7 14.14 2 9.27l6.91-1.01L12 2z"/>
  </symbol>
  <symbol id="icon-eye" viewBox="0 0 24 24" fill="currentColor">
    <path d="M12 4.5C7 4.5 2.73 7.61 1 12c1.73 4.39 6 7.5 11 7.5s9.27-3.11 11-7.5c-1.73-4.39-6-7.5-11-7.5zM12 17c-2.76 0-5-2.24-5-5s2.24-5 5-5 5 2.24 5 5-2.24 5-5 5zm0-8c-1.66 0-3 1.34-3 3s1.34 3 3 3 3-1.34 3-3-1.34-3-3-3z"/>
  </symbol>
  <symbol id="icon-unlock" viewBox="0 0 24 24" fill="currentColor">
    <path d="M12 17c1.1 0 2-.9 2-2s-.9-2-2-2-2 .9-2 2 .9 2 2 2zm6-9c0-1.1-.9-2-2-2H4c-1.1 0-2 .9-2 2v10c0 1.1.9 2 2 2h12c1.1 0 2-.9 2-2V8zm-2 0v6H6V8h10z"/>
  </symbol>
  <symbol id="icon-copy" viewBox="0 0 24 24" fill="currentColor">
    <path d="M16 1H4c-1.1 0-2 .9-2 2v14h2V3h12V1zm3 4H8c-1.1 0-2 .9-2 2v14c0 1.1.9 2 2 2h11c1.1 0 2-.9 2-2V7c0-1.1-.9-2-2-2zm0 16H8V7h11v14z"/>
  </symbol>
  <symbol id="icon-compress" viewBox="0 0 24 24" fill="currentColor">
    <path d="M19 12h-6v6h-2v-6H5v-2h6V5h2v6h6v2z"/>
  </symbol>
  <symbol id="icon-th-large" viewBox="0 0 24 24" fill="currentColor">
    <path d="M3 13h8V3H3v10zm0 8h8v-6H3v6zm10 0h8V11h-8v10zm0-18v6h8V3h-8z"/>
  </symbol>
  <symbol id="icon-image" viewBox="0 0 24 24" fill="currentColor">
    <path d="M21 19V5c0-1.1-.9-2-2-2H5c-1.1 0-2 .9-2 2v14c0 1.1.9 2 2 2h14c1.1 0 2-.9 2-2zM8.5 13.5l2.5 3.01L14.5 12l4.5 6H5l3.5-4.5z"/>
  </symbol>
  <symbol id="icon-images" viewBox="0 0 24 24" fill="currentColor">
    <path d="M21 16V4c0-1.1-.9-2-2-2H5c-1.1 0-2 .9-2 2v12c0 1.1.9 2 2 2h14c1.1 0 2-.9 2-2zm-4.5-6c-.83 0-1.5-.67-1.5-1.5S15.67 7 16.5 7 18 7.67 18 8.5s-.67 1.5-1.5 1.5zm-10 0c-.83 0-1.5-.67-1.5-1.5S4.67 7 5.5 7 7 7.67 7 8.5 6.33 10 5.5 10zm10 8H7v-2h9v2zm-10 0H5v-2h3v2z"/>
  </symbol>
  <symbol id="icon-font" viewBox="0 0 24 24" fill="currentColor">
    <path d="M5 4v3h5.5v12h3V7H19V4z"/>
  </symbol>
  <symbol id="icon-file-text" viewBox="0 0 24 24" fill="currentColor">
    <path d="M14 2H6c-1.1 0-1.99.9-1.99 2L4 20c0 1.1.89 2 1.99 2H18c1.1 0 2-.9 2-2V8l-6-6zm2 16H8v-2h8v2zm0-4H8v-2h8v2zm-3-5l3.5-7h-7L9 9z"/>
  </symbol>
  <symbol id="icon-trash" viewBox="0 0 24 24" fill="currentColor">
    <path d="M6 19c0 1.1.9 2 2 2h8c1.1 0 2-.9 2-2V7H6v12zM19 4h-3.5l-1-1h-5l-1 1H5v2h14V4z"/>
  </symbol>
  <symbol id="icon-file-export" viewBox="0 0 24 24" fill="currentColor">
    <path d="M19 9h-4V3H9v6H5l7 7 7-7zM5 18v2h14v-2H5z"/>
  </symbol>
  <symbol id="icon-rotate-right" viewBox="0 0 24 24" fill="currentColor">
    <path d="M12 4V1L8 5l4 4V6c3.31 0 6 2.69 6 6 0 1.01-.25 1.97-.7 2.8l1.46 1.46C19.54 15.03 20 13.57 20 12c0-4.42-3.58-8-8-8zm0 14c-3.31 0-6-2.69-6-6 0-1.01.25-1.97.7-2.8L5.24 7.74C4.46 8.97 4 10.43 4 12c0 4.42 3.58 8 8 8v3l4-4-4-4v3z"/>
  </symbol>
  <symbol id="icon-file" viewBox="0 0 24 24" fill="currentColor">
    <path d="M14 2H6c-1.1 0-1.99.9-1.99 2L4 20c0 1.1.89 2 1.99 2H18c1.1 0 2-.9 2-2V8l-6-6zm2 16H8v-2h8v2zm0-4H8v-2h8v2zm-3-5l3.5-7h-7L13 9z"/>
  </symbol>
  <symbol id="icon-sort" viewBox="0 0 24 24" fill="currentColor">
    <path d="M12 6V2l-8 4 8 4V8l-6-3 6-3zm0 12v4l8-4-8-4v4l6 3-6 3z"/>
  </symbol>
  <symbol id="icon-box" viewBox="0 0 24 24" fill="currentColor">
    <path d="M19 3H5c-1.1 0-2 .9-2 2v14c0 1.1.9 2 2 2h14c1.1 0 2-.9 2-2V5c0-1.1-.9-2-2-2zm-5 14H7v-2h7v2zm3-4H7v-2h10v2zm0-4H7V7h10v2z"/>
  </symbol>
</svg>
